<?xml version="1.0" standalone="no"?><!DOCTYPE svg PUBLIC "-//W3C//DTD SVG 1.1//EN" "http://www.w3.org/Graphics/SVG/1.1/DTD/svg11.dtd"><svg t="1751680974866" class="icon" viewBox="0 0 1024 1024" version="1.1" xmlns="http://www.w3.org/2000/svg" p-id="11875" width="286" height="286" xmlns:xlink="http://www.w3.org/1999/xlink"><path d="M417.76 237.02L384 192l-33.76 45.02c-24.74 32.98-56.93 60.51-95.25 75.72C142.56 357.35 64 458.3 64 576c0 159.06 143.27 256 320 256s320-96.94 320-256c0-117.7-78.56-218.65-190.99-263.26-38.32-15.21-70.51-42.74-95.25-75.72z" fill="#DF6B99" p-id="11876"></path><path d="M640 824c-183.7 0-312-101.97-312-248 0-110.59 72.98-211.02 185.94-255.83 37.19-14.75 71.31-41.84 98.72-78.36L640 205.34l27.34 36.47c27.41 36.52 61.53 63.61 98.72 78.36C879 364.98 952 465.41 952 576c0 146.03-128.31 248-312 248z" fill="#F5DAE4" p-id="11877"></path><path d="M640 218.67l20.96 27.95c28.26 37.68 63.59 65.69 102.15 80.99C873 371.21 944 468.71 944 576c0 141.31-125.01 240-304 240s-304-98.69-304-240c0-107.29 71-204.79 180.89-248.39 38.57-15.3 73.89-43.31 102.15-80.99L640 218.67m0-26.67l-33.76 45.02c-24.74 32.98-56.93 60.51-95.25 75.72C398.56 357.35 320 458.3 320 576c0 159.06 143.27 256 320 256s320-96.94 320-256c0-117.7-78.56-218.65-190.99-263.26-38.32-15.21-70.51-42.74-95.25-75.72L640 192z" fill="#DF86AA" p-id="11878"></path><path d="M640 824c-146.02 0-248-96.72-248-235.19 0-105.83 56.69-162.81 150.05-244.08 6.83-5.94 14.03-11.58 21.28-17.3 20.3-15.92 41.23-32.39 56.42-56.39L640 238.98l20.25 32.05c15.16 24.02 36.12 40.48 56.41 56.41 7.28 5.7 14.5 11.36 21.31 17.3C831.31 426.02 888 483 888 588.81 888 727.28 786.03 824 640 824z" fill="#F5DAE4" p-id="11879"></path><path d="M640 253.96l13.48 21.35c15.9 25.18 37.42 42.07 58.22 58.41 7.17 5.62 14.27 11.2 21 17.05C824.35 430.56 880 486.39 880 588.8 880 722.57 781.31 816 640 816s-240-93.43-240-227.2c0-102.41 55.65-158.24 147.29-238.03 6.73-5.86 13.83-11.43 21-17.05 20.81-16.34 42.32-33.23 58.22-58.41L640 253.96m0-29.96l-27.01 42.76c-19.79 31.34-50.64 49.68-76.2 71.94C448 416 384 476.99 384 588.8 384 739.9 498.62 832 640 832s256-92.1 256-243.2c0-111.81-64-172.8-152.79-250.1-25.56-22.25-56.41-40.6-76.2-71.94L640 224z" fill="#DF86AA" p-id="11880"></path><path d="M640 824c-108.34 0-184-91.47-184-222.41 0-78.97 36.73-154.64 112.3-231.33L579 359.7c16.5-16.03 35.22-34.2 47.91-59.61l13.09-26.2 13.09 26.2c12.81 25.61 31.66 43.91 48.31 60.05l10.31 10.16C795.97 455.3 824 500.64 824 601.59 824 732.53 748.34 824 640 824z" fill="#F5DAE4" p-id="11881"></path><path d="M640 291.78l5.95 11.89c13.4 26.81 32.77 45.61 49.85 62.19 3.51 3.41 6.95 6.75 10.25 10.07C788.54 459.17 816 503.46 816 601.6 816 727.84 743.63 816 640 816s-176-88.16-176-214.4c0-102.27 62.77-177.79 109.99-225.71 3.41-3.46 6.97-6.93 10.62-10.47 16.94-16.48 36.15-35.15 49.45-61.76l5.94-11.88m0-35.78l-20.26 40.51c-14.84 29.69-38.37 49.09-57.15 68.15C512 416 448 495.67 448 601.6 448 744.75 533.96 832 640 832s192-87.25 192-230.4c0-105.93-32-153.6-114.59-236.94-18.84-19.01-42.31-38.46-57.15-68.15L640 256z" fill="#DF86AA" p-id="11882"></path><path d="M640 824c-70.66 0-120-86.19-120-209.59 0-97.91 31.12-152.67 75.09-219.38 2.59-3.95 5.5-8.03 8.56-12.31 10.53-14.67 22.44-31.31 30.38-53.78l5.97-16.89 5.97 16.88c7.94 22.48 19.84 39.12 30.38 53.8 3.06 4.28 5.97 8.36 8.56 12.31C728.88 461.73 760 516.5 760 614.41 760 737.81 710.66 824 640 824z" fill="#F5DAE4" p-id="11883"></path><path d="M640 335.87c8.29 21.45 20.17 38.03 29.83 51.51 3 4.19 5.86 8.18 8.41 12.04C721.43 464.97 752 518.75 752 614.4 752 731.21 704.9 816 640 816s-112-84.79-112-201.6c0-95.65 30.57-149.43 73.75-214.97 2.55-3.87 5.41-7.85 8.41-12.04 9.67-13.49 21.55-30.07 29.84-51.52m0-47.87l-13.5 38.26c-9.9 28.04-26.88 47.33-38.1 64.36C544 458 512 514.36 512 614.4 512 749.6 569.31 832 640 832s128-82.4 128-217.6c0-100.04-32-156.4-76.39-223.77-11.22-17.03-28.21-36.33-38.1-64.36L640 288z" fill="#DF86AA" p-id="11884"></path></svg>